<svg width="1400" height="760" viewBox="0 0 1400 760" fill="none" xmlns="http://www.w3.org/2000/svg">
  <defs>
    <linearGradient id="orange" x1="378" y1="104" x2="634" y2="432" gradientUnits="userSpaceOnUse">
      <stop offset="0" stop-color="#FF8A24"/>
      <stop offset="1" stop-color="#F06D12"/>
    </linearGradient>
    <linearGradient id="steel" x1="650" y1="112" x2="934" y2="420" gradientUnits="userSpaceOnUse">
      <stop offset="0" stop-color="#9CA3AA"/>
      <stop offset="1" stop-color="#6B737C"/>
    </linearGradient>
    <filter id="softShadow" x="186" y="42" width="1078" height="618" filterUnits="userSpaceOnUse" color-interpolation-filters="sRGB">
      <feDropShadow dx="0" dy="8" stdDeviation="14" flood-color="#B8BEC5" flood-opacity="0.22"/>
    </filter>
  </defs>

  <rect width="1400" height="760" fill="white"/>

  <g filter="url(#softShadow)">
    <path d="M575 124
             C643 124 695 175 695 244
             C695 266 689 288 677 307"
          stroke="url(#orange)" stroke-width="18" stroke-linecap="round"/>
    <path d="M575 124
             C507 124 455 176 455 244
             C455 291 486 326 548 344
             C615 364 640 385 640 433
             C640 490 594 533 529 533
             C461 533 413 488 408 420"
          stroke="url(#orange)" stroke-width="18" stroke-linecap="round" stroke-linejoin="round"/>
    <path d="M529 533
             C597 533 650 480 650 411
             C650 360 617 324 552 305
             C488 287 465 267 465 223
             C465 166 510 124 575 124"
          stroke="url(#orange)" stroke-width="18" stroke-linecap="round" stroke-linejoin="round"/>
    <path d="M443 239
             C407 278 392 324 392 391
             C392 499 468 582 575 582
             C684 582 760 498 760 390
             C760 333 738 282 701 242"
          stroke="url(#orange)" stroke-width="18" stroke-linecap="round"/>
    <path d="M604 194
             C618 203 631 214 642 227"
          stroke="url(#orange)" stroke-width="18" stroke-linecap="round"/>

    <g transform="translate(722 212)">
      <circle cx="72" cy="72" r="64" stroke="url(#steel)" stroke-width="16"/>
      <circle cx="72" cy="72" r="22" fill="url(#steel)"/>
      <g fill="url(#steel)">
        <rect x="64" y="-10" width="16" height="38" rx="5"/>
        <rect x="64" y="116" width="16" height="38" rx="5"/>
        <rect x="-10" y="64" width="38" height="16" rx="5"/>
        <rect x="116" y="64" width="38" height="16" rx="5"/>
        <rect x="110" y="14" width="16" height="34" rx="5" transform="rotate(45 118 31)"/>
        <rect x="20" y="106" width="16" height="34" rx="5" transform="rotate(45 28 123)"/>
        <rect x="107" y="97" width="16" height="34" rx="5" transform="rotate(-45 115 114)"/>
        <rect x="17" y="7" width="16" height="34" rx="5" transform="rotate(-45 25 24)"/>
      </g>
      <path d="M31 148
               C11 130 0 103 0 72
               C0 12 45 -32 103 -32"
            stroke="url(#steel)" stroke-width="16" stroke-linecap="round"/>
    </g>

    <g aria-label="sdobbins-tech">
      <path d="M260 579
               C270 603 291 617 322 617
               C357 617 378 601 378 576
               C378 554 362 543 325 535
               C274 524 248 503 248 462
               C248 415 284 383 340 383
               C394 383 428 409 436 456
               L392 456
               C386 432 369 420 340 420
               C311 420 292 436 292 460
               C292 480 307 491 344 499
               C396 510 423 532 423 574
               C423 624 385 654 322 654
               C262 654 224 626 214 579
               Z"
            fill="url(#orange)"/>
      <path d="M529 654
               C477 654 441 621 441 570
               C441 519 477 485 529 485
               C580 485 617 519 617 570
               C617 621 580 654 529 654
               Z
               M529 617
               C555 617 573 598 573 570
               C573 542 555 522 529 522
               C502 522 485 542 485 570
               C485 598 502 617 529 617
               Z"
            fill="url(#orange)"/>
      <path d="M695 654
               C643 654 607 621 607 570
               C607 519 643 485 695 485
               C747 485 783 519 783 570
               C783 621 747 654 695 654
               Z
               M695 617
               C721 617 739 598 739 570
               C739 542 721 522 695 522
               C668 522 651 542 651 570
               C651 598 668 617 695 617
               Z"
            fill="url(#orange)"/>
      <path d="M895 570
               C895 620 860 654 811 654
               C785 654 765 645 751 629
               L751 648
               L710 648
               L710 376
               L754 376
               L754 507
               C769 492 789 485 813 485
               C861 485 895 520 895 570
               Z
               M851 570
               C851 543 833 522 807 522
               C780 522 762 543 762 570
               C762 597 780 617 807 617
               C833 617 851 597 851 570
               Z"
            fill="url(#orange)"/>
      <path d="M1007 570
               C1007 620 971 654 923 654
               C897 654 877 645 862 629
               L862 648
               L821 648
               L821 376
               L865 376
               L865 507
               C880 492 900 485 924 485
               C972 485 1007 520 1007 570
               Z
               M963 570
               C963 543 945 522 919 522
               C892 522 874 543 874 570
               C874 597 892 617 919 617
               C945 617 963 597 963 570
               Z"
            fill="url(#orange)"/>
      <path d="M1034 648
               L1034 491
               L1078 491
               L1078 648
               Z
               M1056 472
               C1041 472 1030 461 1030 446
               C1030 430 1041 420 1056 420
               C1071 420 1082 430 1082 446
               C1082 461 1071 472 1056 472
               Z"
            fill="url(#orange)"/>
      <path d="M1259 648
               L1215 648
               L1215 560
               C1215 534 1201 521 1178 521
               C1153 521 1137 538 1137 566
               L1137 648
               L1093 648
               L1093 491
               L1135 491
               L1135 512
               C1150 494 1170 485 1194 485
               C1234 485 1259 511 1259 556
               Z"
            fill="url(#orange)"/>
      <path d="M1278 579
               L1278 491
               L1322 491
               L1322 576
               C1322 602 1335 617 1358 617
               C1382 617 1398 600 1398 572
               L1398 491
               L1400 491
               L1400 648
               L1358 648
               L1358 627
               C1343 645 1324 654 1301 654
               C1260 654 1234 624 1234 579
               Z"
            transform="translate(-125,0)"
            fill="url(#orange)"/>

      <path d="M969 569 L1073 569 L1073 605 L969 605 Z" fill="url(#steel)"/>
      <path d="M1098 648
               L1098 491
               L1142 491
               L1142 648
               Z
               M1120 472
               C1105 472 1094 461 1094 446
               C1094 430 1105 420 1120 420
               C1135 420 1146 430 1146 446
               C1146 461 1135 472 1120 472
               Z"
            transform="translate(44,0)"
            fill="url(#steel)"/>
      <path d="M1180 569
               C1186 539 1209 520 1244 520
               C1286 520 1310 548 1310 596
               C1310 603 1309 611 1308 616
               L1219 616
               C1224 638 1240 649 1264 649
               C1280 649 1294 644 1307 633
               L1307 673
               C1294 681 1278 686 1257 686
               C1204 686 1168 654 1168 603
               C1168 552 1202 520 1248 520
               Z
               M1220 586
               L1269 586
               C1268 565 1259 552 1244 552
               C1230 552 1222 565 1220 586
               Z"
            transform="translate(40,-31)"
            fill="url(#steel)"/>
      <path d="M1364 648
               L1319 648
               L1319 558
               C1319 533 1306 520 1284 520
               C1260 520 1245 537 1245 565
               L1245 648
               L1200 648
               L1200 376
               L1245 376
               L1245 511
               C1259 494 1279 485 1302 485
               C1340 485 1364 511 1364 555
               Z"
            transform="translate(-8,0)"
            fill="url(#steel)"/>
    </g>
  </g>
</svg>
