<svg width="1600" height="560" viewBox="0 0 1600 560" fill="none" xmlns="http://www.w3.org/2000/svg">
  <defs>
    <linearGradient id="bg" x1="0" y1="0" x2="1600" y2="560" gradientUnits="userSpaceOnUse">
      <stop offset="0" stop-color="#34383D"/>
      <stop offset="1" stop-color="#171A1E"/>
    </linearGradient>
    <linearGradient id="orange" x1="0" y1="0" x2="1" y2="1">
      <stop offset="0" stop-color="#FF8A24"/>
      <stop offset="1" stop-color="#F06D12"/>
    </linearGradient>
    <linearGradient id="steel" x1="0" y1="0" x2="1" y2="1">
      <stop offset="0" stop-color="#9CA3AA"/>
      <stop offset="1" stop-color="#6B737C"/>
    </linearGradient>
  </defs>

  <rect width="1600" height="560" rx="18" fill="url(#bg)"/>

  <g opacity="0.16" stroke="#FFFFFF" stroke-width="2">
    <path d="M50 42L80.3 24.5H140.9L171.2 42V77L140.9 94.5H80.3L50 77V42Z"/>
    <path d="M140 92L170.3 74.5H230.9L261.2 92V127L230.9 144.5H170.3L140 127V92Z"/>
    <path d="M230 42L260.3 24.5H320.9L351.2 42V77L320.9 94.5H260.3L230 77V42Z"/>
    <path d="M320 92L350.3 74.5H410.9L441.2 92V127L410.9 144.5H350.3L320 127V92Z"/>
    <path d="M50 152L80.3 134.5H140.9L171.2 152V187L140.9 204.5H80.3L50 187V152Z"/>
    <path d="M140 202L170.3 184.5H230.9L261.2 202V237L230.9 254.5H170.3L140 237V202Z"/>
    <path d="M230 152L260.3 134.5H320.9L351.2 152V187L320.9 204.5H260.3L230 187V152Z"/>
    <path d="M320 202L350.3 184.5H410.9L441.2 202V237L410.9 254.5H350.3L320 237V202Z"/>
    <path d="M50 262L80.3 244.5H140.9L171.2 262V297L140.9 314.5H80.3L50 297V262Z"/>
    <path d="M140 312L170.3 294.5H230.9L261.2 312V347L230.9 364.5H170.3L140 347V312Z"/>
    <path d="M230 262L260.3 244.5H320.9L351.2 262V297L320.9 314.5H260.3L230 297V262Z"/>
    <path d="M320 312L350.3 294.5H410.9L441.2 312V347L410.9 364.5H350.3L320 347V312Z"/>
    <path d="M1086 42L1116.3 24.5H1176.9L1207.2 42V77L1176.9 94.5H1116.3L1086 77V42Z"/>
    <path d="M1176 92L1206.3 74.5H1266.9L1297.2 92V127L1266.9 144.5H1206.3L1176 127V92Z"/>
    <path d="M1266 42L1296.3 24.5H1356.9L1387.2 42V77L1356.9 94.5H1296.3L1266 77V42Z"/>
    <path d="M1356 92L1386.3 74.5H1446.9L1477.2 92V127L1446.9 144.5H1386.3L1356 127V92Z"/>
    <path d="M1086 152L1116.3 134.5H1176.9L1207.2 152V187L1176.9 204.5H1116.3L1086 187V152Z"/>
    <path d="M1176 202L1206.3 184.5H1266.9L1297.2 202V237L1266.9 254.5H1206.3L1176 237V202Z"/>
    <path d="M1266 152L1296.3 134.5H1356.9L1387.2 152V187L1356.9 204.5H1296.3L1266 187V152Z"/>
    <path d="M1356 202L1386.3 184.5H1446.9L1477.2 202V237L1446.9 254.5H1386.3L1356 237V202Z"/>
    <path d="M1086 262L1116.3 244.5H1176.9L1207.2 262V297L1176.9 314.5H1116.3L1086 297V262Z"/>
    <path d="M1176 312L1206.3 294.5H1266.9L1297.2 312V347L1266.9 364.5H1206.3L1176 347V312Z"/>
    <path d="M1266 262L1296.3 244.5H1356.9L1387.2 262V297L1356.9 314.5H1296.3L1266 297V262Z"/>
    <path d="M1356 312L1386.3 294.5H1446.9L1477.2 312V347L1446.9 364.5H1386.3L1356 347V312Z"/>
    <path d="M1086 372L1116.3 354.5H1176.9L1207.2 372V407L1176.9 424.5H1116.3L1086 407V372Z"/>
    <path d="M1176 422L1206.3 404.5H1266.9L1297.2 422V457L1266.9 474.5H1206.3L1176 457V422Z"/>
    <path d="M1266 372L1296.3 354.5H1356.9L1387.2 372V407L1356.9 424.5H1296.3L1266 407V372Z"/>
    <path d="M1356 422L1386.3 404.5H1446.9L1477.2 422V457L1446.9 474.5H1386.3L1356 457V422Z"/>
  </g>

  <g opacity="0.22" stroke="#F06D12" stroke-width="2">
    <path d="M1140 92L1163.4 78.5H1210.2L1233.6 92V119L1210.2 132.5H1163.4L1140 119V92Z"/>
    <path d="M1208 132L1231.4 118.5H1278.2L1301.6 132V159L1278.2 172.5H1231.4L1208 159V132Z"/>
    <path d="M1276 92L1299.4 78.5H1346.2L1369.6 92V119L1346.2 132.5H1299.4L1276 119V92Z"/>
    <path d="M1344 132L1367.4 118.5H1414.2L1437.6 132V159L1414.2 172.5H1367.4L1344 159V132Z"/>
    <path d="M1140 172L1163.4 158.5H1210.2L1233.6 172V199L1210.2 212.5H1163.4L1140 199V172Z"/>
    <path d="M1208 212L1231.4 198.5H1278.2L1301.6 212V239L1278.2 252.5H1231.4L1208 239V212Z"/>
    <path d="M1276 172L1299.4 158.5H1346.2L1369.6 172V199L1346.2 212.5H1299.4L1276 199V172Z"/>
    <path d="M1344 212L1367.4 198.5H1414.2L1437.6 212V239L1414.2 252.5H1367.4L1344 239V212Z"/>
  </g>

  <rect x="120" y="488" width="1360" height="10" fill="#F06D12"/>

  <g transform="translate(455 84)">
    <g transform="translate(0 0)">
      <path d="M210 46C278 46 330 97 330 166C330 188 324 210 312 229" stroke="url(#orange)" stroke-width="18" stroke-linecap="round"/>
      <path d="M210 46C142 46 90 98 90 166C90 213 121 248 183 266C250 286 275 307 275 355C275 412 229 455 164 455C96 455 48 410 43 342" stroke="url(#orange)" stroke-width="18" stroke-linecap="round" stroke-linejoin="round"/>
      <path d="M164 455C232 455 285 402 285 333C285 282 252 246 187 227C123 209 100 189 100 145C100 88 145 46 210 46" stroke="url(#orange)" stroke-width="18" stroke-linecap="round" stroke-linejoin="round"/>
      <path d="M78 161C42 200 27 246 27 313C27 421 103 504 210 504C319 504 395 420 395 312C395 255 373 204 336 164" stroke="url(#orange)" stroke-width="18" stroke-linecap="round"/>
      <path d="M239 116C253 125 266 136 277 149" stroke="url(#orange)" stroke-width="18" stroke-linecap="round"/>
    </g>

    <g transform="translate(357 134)">
      <circle cx="72" cy="72" r="64" stroke="url(#steel)" stroke-width="16"/>
      <circle cx="72" cy="72" r="22" fill="url(#steel)"/>
      <g fill="url(#steel)">
        <rect x="64" y="-10" width="16" height="38" rx="5"/>
        <rect x="64" y="116" width="16" height="38" rx="5"/>
        <rect x="-10" y="64" width="38" height="16" rx="5"/>
        <rect x="116" y="64" width="38" height="16" rx="5"/>
        <rect x="110" y="14" width="16" height="34" rx="5" transform="rotate(45 118 31)"/>
        <rect x="20" y="106" width="16" height="34" rx="5" transform="rotate(45 28 123)"/>
        <rect x="107" y="97" width="16" height="34" rx="5" transform="rotate(-45 115 114)"/>
        <rect x="17" y="7" width="16" height="34" rx="5" transform="rotate(-45 25 24)"/>
      </g>
      <path d="M31 148C11 130 0 103 0 72C0 12 45 -32 103 -32" stroke="url(#steel)" stroke-width="16" stroke-linecap="round"/>
    </g>

    <text x="4" y="502" fill="#F06D12" font-family="Segoe UI, Arial, sans-serif" font-size="92" font-weight="700" letter-spacing="-2">sdobbins</text>
    <text x="548" y="502" fill="#7E8791" font-family="Segoe UI, Arial, sans-serif" font-size="92" font-weight="700" letter-spacing="-2">-tech</text>
  </g>

  <text x="156" y="156" fill="#F5F6F7" font-family="Segoe UI, Arial, sans-serif" font-size="30" font-weight="700">SDOBBINS-TECH</text>
  <text x="158" y="194" fill="#F06D12" font-family="Segoe UI, Arial, sans-serif" font-size="20" font-weight="700">MAKER REPO</text>
  <text x="158" y="236" fill="#BAC1C8" font-family="Consolas, monospace" font-size="13">MODS  |  CALIBRATIONS  |  GUIDES  |  PROJECT FILES</text>
  <text x="158" y="454" fill="#BAC1C8" font-family="Consolas, monospace" font-size="13">Community-ready 3D printing files and machine upgrades</text>
</svg>
